<svg width="100" height="100" viewBox="0 0 100 100" fill="none" xmlns="http://www.w3.org/2000/svg">
<path d="M54.9676 100C71.8778 100 87.386 93.007 97.6628 81.4893C103.733 74.6863 97.1135 64.7467 87.7323 66.3719C70.0508 69.435 53.7486 57.1398 53.7486 40.8266C53.7486 31.3687 59.3441 22.8008 68.2278 18.2023C76.5471 13.8957 74.4544 2.42344 65.0024 0.835352C61.6923 0.280107 58.3335 0.00049928 54.9676 0C24.6152 0 0 22.3779 0 50C0 77.6094 24.6014 100 54.9676 100ZM54.9676 9.375C57.7557 9.375 60.4834 9.60957 63.1302 10.0543C51.3723 16.1408 43.4422 27.6406 43.4422 40.8266C43.4422 63.0625 65.6957 79.7328 89.6605 75.5813C81.472 84.7586 68.9738 90.625 54.9676 90.625C30.3019 90.625 10.3064 72.4365 10.3064 50C10.3064 27.5635 30.3019 9.375 54.9676 9.375Z" fill="black"/>
</svg>
